<?xml version="1.0" encoding="UTF-8" standalone="no"?>
<svg
   xmlns="http://www.w3.org/2000/svg"
   id="svg2188"
>
  <g
     id="layer2"
     style="display:inline">
    <path
       style="fill:#938e82;fill-opacity:1;fill-rule:evenodd;stroke:#000000;stroke-width:6;stroke-linecap:round;stroke-linejoin:round;stroke-miterlimit:4;stroke-opacity:1"
       d="m 319,55 -40,0 0,35 -25,0 0,-35 -40,0 0,35 -25,0 0,-35 -40,0 0,35 -25,0 0,-35 -39.998104,0.0036 0,59.99447 29.994194,30.00971 L 114,307 l -15,18 0,25 205,0 0.0223,-24.95536 L 289,306.99875 289,145 l 30,-30 0,-60 z"
       id="path3327" />
    <path
       style="fill:#a69a89;fill-opacity:1;stroke:#000000;stroke-width:5;stroke-linecap:round;stroke-linejoin:round;stroke-miterlimit:4;stroke-opacity:1;stroke-dasharray:none"
       d="m 201.00139,192.50404 c -18.76445,0.30634 -33.76778,17.97148 -33.5,39.4375 l 0.15625,0 0,74.71875 67.78125,0 0,-74.90625 0.0625,0 c 0.003,-0.32903 0.004,-0.60848 0,-0.9375 -0.007,-0.53469 -0.0372,-1.06459 -0.0625,-1.59375 -0.99127,-20.71481 -16.14045,-37.01746 -34.4375,-36.71875 z"
       id="rect8215" />
  </g>
</svg>
